<svg xmlns="http://www.w3.org/2000/svg" xmlns:xlink="http://www.w3.org/1999/xlink" viewBox="0 0 664 348" width="664" height="348"><path d="M 257.000,117.000 C 253.468,119.192 255.000,119.500 253.000,122.000" stroke-width="4.708" stroke="black" fill="none" stroke-linecap="round"></path><path d="M 253.000,122.000 C 253.012,126.019 252.468,125.192 255.000,129.000" stroke-width="4.085" stroke="black" fill="none" stroke-linecap="round"></path><path d="M 255.000,129.000 C 261.816,137.658 261.012,138.019 269.000,146.000" stroke-width="2.709" stroke="black" fill="none" stroke-linecap="round"></path><path d="M 269.000,146.000 C 278.060,155.075 277.316,155.658 286.000,165.000" stroke-width="2.307" stroke="black" fill="none" stroke-linecap="round"></path><path d="M 286.000,165.000 C 290.243,170.181 290.060,170.075 293.000,176.000" stroke-width="2.810" stroke="black" fill="none" stroke-linecap="round"></path><path d="M 293.000,176.000 C 294.459,179.943 294.743,179.681 295.000,184.000" stroke-width="3.386" stroke="black" fill="none" stroke-linecap="round"></path><path d="M 295.000,184.000 C 295.766,187.681 295.459,187.443 295.000,191.000" stroke-width="3.738" stroke="black" fill="none" stroke-linecap="round"></path><path d="M 295.000,191.000 C 289.985,195.489 294.266,194.181 292.000,197.000" stroke-width="3.893" stroke="black" fill="none" stroke-linecap="round"></path><path d="M 292.000,197.000 C 301.697,199.480 297.985,201.489 311.000,203.000" stroke-width="4.301" stroke="black" fill="none" stroke-linecap="round"></path><path d="M 311.000,203.000 C 320.110,206.767 320.197,206.480 329.000,211.000" stroke-width="2.879" stroke="black" fill="none" stroke-linecap="round"></path><path d="M 329.000,211.000 C 341.292,216.471 341.110,216.767 353.000,223.000" stroke-width="2.286" stroke="black" fill="none" stroke-linecap="round"></path><path d="M 353.000,223.000 C 367.346,230.974 367.292,230.971 381.000,240.000" stroke-width="1.959" stroke="black" fill="none" stroke-linecap="round"></path></svg>